<svg width="30" height="30" viewBox="0 0 30 30" fill="none" xmlns="http://www.w3.org/2000/svg">
<path fill-rule="evenodd" clip-rule="evenodd" d="M15 30C23.2842 30 30 23.2843 30 15C30 6.7157 23.2842 0 15 0C6.71582 0 0 6.7157 0 15C0 23.2843 6.71582 30 15 30ZM8.23291 12.6415C6.99023 12.6415 5.98291 13.6489 5.98291 14.8916C5.98291 16.1343 6.99023 17.1417 8.23291 17.1417H13.9331C15.1758 17.1417 16.1831 16.1343 16.1831 14.8916C16.1831 13.6489 15.1758 12.6415 13.9331 12.6415H8.23291ZM7.18262 9.49146C7.18262 8.24878 8.18994 7.24133 9.43262 7.24133H23.2329C24.4756 7.24133 25.4832 8.24878 25.4832 9.49146C25.4832 10.7341 24.4756 11.7415 23.2329 11.7415H9.43262C8.18994 11.7415 7.18262 10.7341 7.18262 9.49146ZM6.73291 18.0417C5.49023 18.0417 4.48291 19.0491 4.48291 20.2918C4.48291 21.5345 5.49023 22.5419 6.73291 22.5419H20.5332C21.7759 22.5419 22.7834 21.5345 22.7834 20.2918C22.7834 19.0491 21.7759 18.0417 20.5332 18.0417H6.73291Z" fill="white"/>
</svg>
